<?xml version="1.0" encoding="utf-8"?>
<!-- Generator: Adobe Illustrator 16.0.0, SVG Export Plug-In . SVG Version: 6.00 Build 0)  -->
<!DOCTYPE svg PUBLIC "-//W3C//DTD SVG 1.1//EN" "http://www.w3.org/Graphics/SVG/1.1/DTD/svg11.dtd">
<svg version="1.1" id="Layer_1" xmlns="http://www.w3.org/2000/svg" xmlns:xlink="http://www.w3.org/1999/xlink" x="0px" y="0px"
	 width="156px" height="213px" viewBox="0 0 156 213" enable-background="new 0 0 156 213" xml:space="preserve">
<path opacity="0.7" fill="#30B44A" enable-background="new    " d="M35.077,73.593c0,0,9-4.333,18-2.5s19.166,2.833,21.333,2.5
	s15-3.667,18.167-4.333c3.168-0.667,26,0.833,26.834,2s-6.166,0.167-10.166,2.833s-4.834,4.5-4.334,5s-4.834-0.333-11.5,2.167
	s-3.664,6.667-19.499,4S35.077,73.593,35.077,73.593z"/>
<ellipse opacity="0.7" fill="#5C1577" enable-background="new    " cx="73.911" cy="134.928" rx="24.067" ry="48.553"/>
<ellipse opacity="0.6" fill="#CE1B2D" enable-background="new    " cx="52.639" cy="93.685" rx="12.192" ry="11.485"/>
<ellipse opacity="0.6" fill="#4B187C" enable-background="new    " cx="64.832" cy="89.634" rx="12.193" ry="11.485"/>
<ellipse opacity="0.6" fill="#CE1B2D" enable-background="new    " cx="81.538" cy="89.634" rx="12.192" ry="11.485"/>
<ellipse opacity="0.6" fill="#CE1B2D" enable-background="new    " cx="96.782" cy="93.126" rx="12.192" ry="11.485"/>
<ellipse opacity="0.6" fill="#4B187C" enable-background="new    " cx="99.714" cy="103.985" rx="12.192" ry="11.485"/>
<ellipse opacity="0.6" fill="#CE1B2D" enable-background="new    " cx="55.651" cy="109.416" rx="12.192" ry="11.484"/>
<ellipse opacity="0.6" fill="#CE1B2D" enable-background="new    " cx="53.828" cy="125.078" rx="12.192" ry="11.484"/>
<ellipse opacity="0.6" fill="#CE1B2D" enable-background="new    " cx="68.262" cy="110.33" rx="12.193" ry="11.484"/>
<ellipse opacity="0.6" fill="#48279B" enable-background="new    " cx="82.253" cy="106.575" rx="12.192" ry="11.484"/>
<ellipse opacity="0.6" fill="#CE1B2D" enable-background="new    " cx="97.706" cy="122.461" rx="12.192" ry="11.484"/>
<ellipse opacity="0.6" fill="#CE1B2D" enable-background="new    " cx="77.249" cy="123.381" rx="12.192" ry="11.484"/>
<ellipse opacity="0.6" fill="#CE1B2D" enable-background="new    " cx="62.406" cy="135.488" rx="12.192" ry="11.484"/>
<ellipse opacity="0.6" fill="#4B187C" enable-background="new    " cx="58.117" cy="137.855" rx="12.192" ry="11.484"/>
<ellipse opacity="0.6" fill="#CE1B2D" enable-background="new    " cx="63.973" cy="151.639" rx="12.192" ry="11.484"/>
<ellipse opacity="0.6" fill="#CE1B2D" enable-background="new    " cx="78.743" cy="140.152" rx="12.192" ry="11.484"/>
<ellipse opacity="0.6" fill="#CE1B2D" enable-background="new    " cx="91.811" cy="137.588" rx="12.191" ry="11.484"/>
<ellipse opacity="0.6" fill="#4B187C" enable-background="new    " cx="81.536" cy="115.746" rx="12.192" ry="11.484"/>
<ellipse opacity="0.6" fill="#48279B" enable-background="new    " cx="59.685" cy="112.613" rx="12.192" ry="11.484"/>
<ellipse opacity="0.6" fill="#CE1B2D" enable-background="new    " cx="78.986" cy="146.652" rx="12.191" ry="11.484"/>
<ellipse opacity="0.6" fill="#CE1B2D" enable-background="new    " cx="82.253" cy="152.904" rx="12.192" ry="11.484"/>
<ellipse opacity="0.6" fill="#CE1B2D" enable-background="new    " cx="66.552" cy="166.479" rx="12.192" ry="11.484"/>
<ellipse opacity="0.6" fill="#CE1B2D" enable-background="new    " cx="74.599" cy="171.072" rx="12.192" ry="11.484"/>
<ellipse opacity="0.6" fill="#4B187C" enable-background="new    " cx="81.539" cy="165.018" rx="12.191" ry="11.484"/>
<g>
	<path fill="#FFFFFF" d="M44.618,88.82c0.892-1.205,2.492-2.055,3.594-2.416c1.05-0.345,1.621-1.477,1.275-2.523
		c-0.346-1.049-1.472-1.617-2.523-1.276c-0.844,0.276-3.738,1.373-5.562,3.838c-0.656,0.89-0.469,2.142,0.419,2.798
		c0.358,0.266,0.774,0.393,1.188,0.393C43.622,89.631,44.225,89.35,44.618,88.82z"/>
	<path fill="#FFFFFF" d="M60.495,83.829c0.358,0.266,0.775,0.394,1.188,0.394c0.612,0,1.217-0.28,1.608-0.81
		c0.894-1.207,2.494-2.057,3.596-2.418c1.049-0.346,1.619-1.476,1.275-2.524c-0.347-1.05-1.474-1.617-2.525-1.275
		c-0.844,0.277-3.734,1.373-5.561,3.837C59.421,81.919,59.606,83.171,60.495,83.829z"/>
	<path fill="#FFFFFF" d="M58.208,99.86c0.358,0.265,0.774,0.392,1.188,0.392c0.613,0,1.218-0.279,1.61-0.811
		c0.891-1.205,2.492-2.055,3.592-2.416c1.05-0.345,1.621-1.477,1.275-2.523c-0.346-1.05-1.472-1.619-2.523-1.276
		c-0.844,0.276-3.737,1.373-5.561,3.838C57.134,97.95,57.321,99.202,58.208,99.86z"/>
	<path fill="#FFFFFF" d="M75.771,90.53c0.356,0.265,0.772,0.394,1.188,0.394c0.613,0,1.221-0.28,1.609-0.812
		c0.894-1.204,2.492-2.055,3.595-2.417c1.053-0.345,1.621-1.477,1.272-2.523c-0.344-1.049-1.479-1.623-2.522-1.274
		c-0.845,0.276-3.733,1.374-5.561,3.837C74.698,88.62,74.884,89.872,75.771,90.53z"/>
	<path fill="#FFFFFF" d="M42.445,106.779c0.358,0.268,0.776,0.395,1.189,0.395c0.612,0,1.217-0.279,1.608-0.811
		c0.893-1.203,2.495-2.055,3.596-2.417c1.051-0.345,1.621-1.477,1.274-2.523c-0.345-1.051-1.478-1.621-2.524-1.274
		c-0.844,0.276-3.735,1.374-5.56,3.834C41.372,104.867,41.558,106.121,42.445,106.779z"/>
	<path fill="#FFFFFF" d="M48.411,117.621c-0.346-1.049-1.475-1.621-2.524-1.271c-0.843,0.275-3.736,1.375-5.56,3.838
		c-0.656,0.89-0.471,2.142,0.418,2.797c0.357,0.271,0.774,0.396,1.188,0.396c0.612,0,1.217-0.279,1.608-0.812
		c0.893-1.204,2.494-2.059,3.597-2.418C48.186,119.799,48.757,118.67,48.411,117.621z"/>
	<path fill="#FFFFFF" d="M56.171,115.783c0.358,0.266,0.774,0.393,1.188,0.393c0.613,0,1.218-0.277,1.61-0.811
		c0.89-1.203,2.49-2.057,3.593-2.416c1.049-0.348,1.62-1.477,1.274-2.523c-0.346-1.049-1.473-1.617-2.524-1.275
		c-0.844,0.277-3.737,1.375-5.56,3.838C55.097,113.875,55.284,115.127,56.171,115.783z"/>
	<path fill="#FFFFFF" d="M69.02,123.834c-0.344-1.047-1.473-1.619-2.523-1.273c-0.845,0.275-3.737,1.371-5.562,3.838
		c-0.656,0.892-0.469,2.146,0.419,2.8c0.358,0.268,0.774,0.395,1.188,0.395c0.612,0,1.218-0.278,1.609-0.812
		c0.891-1.205,2.492-2.057,3.594-2.416C68.792,126.014,69.366,124.883,69.02,123.834z"/>
	<path fill="#FFFFFF" d="M95.818,101.389c-0.658,0.888-0.471,2.14,0.416,2.798c0.356,0.265,0.774,0.393,1.188,0.393
		c0.611,0,1.22-0.279,1.606-0.81c0.896-1.205,2.494-2.056,3.597-2.418c1.054-0.345,1.619-1.476,1.272-2.524
		c-0.346-1.05-1.479-1.619-2.522-1.272C100.535,97.829,97.643,98.925,95.818,101.389z"/>
	<path fill="#FFFFFF" d="M77.642,105.166c-0.657,0.889-0.474,2.141,0.416,2.799c0.356,0.266,0.774,0.393,1.188,0.393
		c0.611,0,1.219-0.278,1.607-0.811c0.895-1.204,2.494-2.055,3.598-2.416c1.049-0.346,1.619-1.478,1.271-2.524
		c-0.347-1.049-1.479-1.621-2.521-1.274C82.357,101.608,79.467,102.704,77.642,105.166z"/>
	<path fill="#FFFFFF" d="M99.09,114.783c-0.846,0.275-3.736,1.373-5.562,3.838c-0.653,0.887-0.471,2.141,0.418,2.797
		c0.357,0.268,0.773,0.396,1.188,0.396c0.609,0,1.218-0.281,1.607-0.812c0.896-1.205,2.491-2.057,3.594-2.416
		c1.054-0.346,1.621-1.477,1.274-2.521C101.268,115.014,100.143,114.443,99.09,114.783z"/>
	<path fill="#FFFFFF" d="M92.387,130.559c-0.844,0.277-3.732,1.371-5.562,3.834c-0.658,0.89-0.474,2.144,0.416,2.799
		c0.354,0.269,0.772,0.396,1.188,0.396c0.609,0,1.217-0.277,1.605-0.811c0.896-1.207,2.494-2.058,3.598-2.418
		c1.049-0.346,1.619-1.476,1.271-2.521C94.566,130.787,93.439,130.215,92.387,130.559z"/>
	<path fill="#FFFFFF" d="M75.298,133.686c-0.845,0.277-3.733,1.373-5.562,3.832c-0.659,0.89-0.474,2.142,0.413,2.799
		c0.357,0.271,0.775,0.396,1.189,0.396c0.611,0,1.217-0.277,1.607-0.809c0.896-1.207,2.498-2.06,3.601-2.42
		c1.051-0.346,1.62-1.478,1.271-2.521C77.476,133.912,76.345,133.338,75.298,133.686z"/>
	<path fill="#FFFFFF" d="M91.99,84.606c-0.656,0.89-0.469,2.142,0.42,2.798c0.357,0.266,0.773,0.393,1.189,0.393
		c0.608,0,1.217-0.28,1.604-0.812c0.896-1.204,2.491-2.055,3.598-2.417c1.05-0.345,1.615-1.477,1.271-2.523
		c-0.346-1.049-1.479-1.621-2.521-1.274C96.707,81.046,93.812,82.143,91.99,84.606z"/>
	<path fill="#FFFFFF" d="M70.665,155.221c0.893-1.205,2.494-2.057,3.596-2.418c1.049-0.346,1.62-1.479,1.273-2.525
		c-0.349-1.047-1.477-1.62-2.525-1.271c-0.844,0.275-3.734,1.375-5.559,3.839c-0.656,0.891-0.471,2.145,0.418,2.799
		c0.357,0.268,0.774,0.395,1.188,0.395C69.667,156.031,70.271,155.752,70.665,155.221z"/>
	<path fill="#FFFFFF" d="M80.857,123.182c0.891-1.205,2.492-2.055,3.592-2.416c1.051-0.344,1.621-1.475,1.277-2.522
		c-0.351-1.05-1.478-1.615-2.525-1.272c-0.844,0.274-3.732,1.372-5.561,3.84c-0.655,0.891-0.469,2.143,0.42,2.799
		c0.356,0.268,0.772,0.395,1.188,0.395C79.861,123.992,80.467,123.713,80.857,123.182z"/>
	<path fill="#FFFFFF" d="M84.938,145.879c-0.842,0.273-3.735,1.375-5.561,3.836c-0.654,0.887-0.471,2.141,0.42,2.797
		c0.354,0.266,0.771,0.393,1.188,0.393c0.611,0,1.22-0.276,1.607-0.811c0.893-1.203,2.492-2.053,3.596-2.416
		c1.052-0.346,1.619-1.479,1.271-2.525C87.115,146.105,85.99,145.531,84.938,145.879z"/>
	<path fill="#FFFFFF" d="M50.208,132.123c-0.844,0.275-3.735,1.367-5.562,3.836c-0.657,0.891-0.471,2.143,0.418,2.797
		c0.357,0.268,0.773,0.396,1.188,0.396c0.612,0,1.218-0.279,1.609-0.812c0.895-1.205,2.493-2.057,3.594-2.414
		c1.049-0.344,1.621-1.477,1.276-2.521C52.388,132.35,51.262,131.775,50.208,132.123z"/>
	<path fill="#FFFFFF" d="M62.917,145.59c-0.346-1.051-1.472-1.619-2.523-1.275c-0.844,0.275-3.736,1.371-5.561,3.836
		c-0.656,0.892-0.47,2.144,0.418,2.798c0.357,0.268,0.774,0.395,1.188,0.395c0.613,0,1.218-0.274,1.608-0.812
		c0.893-1.203,2.494-2.055,3.594-2.414C62.69,147.77,63.263,146.639,62.917,145.59z"/>
	<path fill="#FFFFFF" d="M62.559,161.748c-0.844,0.277-3.736,1.373-5.561,3.838c-0.656,0.891-0.47,2.145,0.418,2.799
		c0.358,0.268,0.774,0.395,1.188,0.395c0.613,0,1.218-0.276,1.61-0.812c0.891-1.204,2.492-2.055,3.592-2.416
		c1.05-0.344,1.621-1.477,1.275-2.52C64.738,161.982,63.611,161.406,62.559,161.748z"/>
	<path fill="#FFFFFF" d="M74.4,166.354c-0.843,0.277-3.735,1.371-5.562,3.838c-0.656,0.89-0.471,2.144,0.418,2.798
		c0.357,0.268,0.775,0.395,1.188,0.395c0.612,0,1.218-0.274,1.609-0.812c0.894-1.205,2.493-2.055,3.593-2.416
		c1.05-0.346,1.621-1.475,1.277-2.521C76.581,166.582,75.452,166.012,74.4,166.354z"/>
	<path fill="#FFFFFF" d="M84.623,157.047c-0.842,0.273-3.729,1.371-5.561,3.836c-0.658,0.889-0.472,2.141,0.418,2.799
		c0.354,0.267,0.771,0.394,1.188,0.394c0.609,0,1.217-0.277,1.605-0.812c0.895-1.207,2.494-2.057,3.598-2.416
		c1.049-0.346,1.621-1.475,1.273-2.522C86.807,157.275,85.678,156.705,84.623,157.047z"/>
</g>
<path fill="#231F20" enable-background="new    " d="M130.938,52.56c0.668-0.881,0.494-2.137-0.387-2.803
	c-0.887-0.668-2.139-0.492-2.805,0.389c-3.584,4.734-9.764,9.229-12.811,10.771c-5.299,2.687-9.215,4.185-12.521,4.734
	c2.814-3.168,4.814-7.066,6.219-10.136c1.941-4.259,3.102-8.534,4.119-12.308c1.355-5.021,2.531-9.354,5.088-12.567
	c0.688-0.864,0.547-2.122-0.318-2.81c-0.862-0.688-2.121-0.547-2.812,0.318c-3.067,3.859-4.401,8.791-5.815,14.014
	c-1.027,3.801-2.092,7.732-3.898,11.691c-1.855,4.076-4.852,9.785-9.346,12.283c-0.049,0.027-0.088,0.062-0.135,0.094
	c-0.019,0.002-0.027,0.003-0.043,0.005c1.897-1.745,3.248-3.614,4.368-6.302c1.005-2.407,0.72-4.898,0.441-7.311
	c-0.531-4.658-0.99-8.682,7.383-12.633c1-0.471,1.431-1.662,0.955-2.662c-0.474-1-1.664-1.426-2.662-0.955
	c-5.379,2.539-7.937,5.435-9.074,8.301c-0.661-0.381-1.516-0.365-2.174,0.111c-1.819,1.322-2.321,4.37-3.053,9.644
	c-0.3,2.151-0.604,4.377-1.056,6.237c-1.408,5.854-4.465,7.207-6.707,8.186c-0.305,0.095-0.59,0.193-0.885,0.29
	c0.248-3.688,2.504-9.263,6.535-16.045c3.316-5.587,4.484-13.214,3.285-21.474c-0.154-1.095-1.184-1.847-2.266-1.692
	c-1.094,0.159-1.853,1.174-1.693,2.267c1.068,7.357,0.086,14.055-2.768,18.855c-2.23,3.745-3.926,7.118-5.109,10.118
	c0.279-1.619,0.527-3.342,0.738-5.18c0.172-1.498,0.26-3.052,0.348-4.555c0.266-4.578,0.514-8.902,2.896-11.877
	c0.688-0.861,0.557-2.12-0.312-2.812c-0.858-0.688-2.117-0.553-2.812,0.311c-3.188,3.972-3.479,9.146-3.771,14.148
	c-0.086,1.514-0.168,2.942-0.325,4.328c-0.688,5.971-1.769,10.76-3.144,14.069c-0.645-2.599-1.812-5.584-3.5-8.938
	c0.338-0.594,0.709-1.192,1.111-1.83c2.665-4.207,5.982-9.444,2.682-21.195c-0.299-1.062-1.399-1.686-2.466-1.385
	c-1.063,0.299-1.684,1.402-1.385,2.467c2.793,9.939,0.312,13.994-2.14,17.863c-0.27-0.472-0.543-0.944-0.83-1.428
	c-0.77-1.295-1.639-2.584-2.479-3.83c-2.564-3.805-4.986-7.397-4.89-11.211c0.028-1.104-0.845-2.021-1.948-2.05
	c-1.1-0.062-2.021,0.845-2.05,1.948c-0.13,5.091,2.769,9.39,5.571,13.548c0.847,1.255,1.646,2.44,2.355,3.638
	c0.721,1.211,1.376,2.379,1.98,3.51c-0.215,0.521-0.406,1.062-0.555,1.633c-0.818,3.137-0.695,5.059,0.055,7.642
	c-3.76-2.616-5.178-4.28-6.369-7.223c-0.895-2.205-1.163-3.972-1.448-5.841c-0.626-4.103-1.336-8.752-8.504-18.404
	c-0.659-0.886-1.911-1.074-2.798-0.413c-0.887,0.658-1.072,1.911-0.413,2.798c6.575,8.854,7.178,12.805,7.761,16.624
	c0.309,2.015,0.626,4.099,1.695,6.738c0.703,1.737,1.511,3.135,2.516,4.385c-4.187-1.815-8.781-7.629-10.244-11.116
	c-1.197-2.854-1.979-6.156-2.732-9.351c-1.424-6.025-2.654-11.229-6.568-12.365c-1.062-0.308-2.171,0.304-2.479,1.363
	c-0.309,1.062,0.303,2.171,1.363,2.479c1.674,0.484,2.848,5.451,3.791,9.442c0.756,3.196,1.61,6.817,2.937,9.978
	c0.575,1.375,1.514,3.01,2.698,4.67c-2.799-1.076-5.562-1.862-6.935-2.229c-4.543-1.211-7.715-5.847-8.171-8.586
	c-0.182-1.089-1.203-1.826-2.301-1.646c-1.09,0.182-1.826,1.211-1.645,2.301c0.739,4.449,5.188,10.224,11.086,11.795
	c3.318,0.887,6.312,1.955,8.537,2.931c-7.195,0.313-14.141,2.146-20.668,5.488c-0.875,0.446-1.295,1.464-0.992,2.397
	c0.305,0.934,1.229,1.504,2.211,1.358c1.66-0.261,3.396-0.392,5.16-0.392c3.418,0,6.629,0.49,9.381,1.14
	c-4.275,1.831-7.698,5.665-7.698,10.893c0,3.034,1.05,5.88,2.942,8.115c-2.832,2.33-4.513,5.843-4.513,9.675
	c0,2.87,0.979,5.625,2.74,7.834c-2.315,2.317-3.649,5.514-3.649,8.905c0,4.429,2.312,8.47,5.939,10.681
	c-0.807,1.688-1.227,3.521-1.227,5.409c0,6.685,5.133,12.152,11.549,12.441c-0.022,0.271-0.033,0.549-0.033,0.824
	c0,3.562,1.71,6.879,4.445,8.93c-1.447,1.912-2.244,4.26-2.244,6.734c0,6.102,4.818,11.061,10.742,11.061
	c1.092,0,2.159-0.172,3.194-0.52c1.72,3.854,5.515,6.461,9.769,6.461c5.267,0,9.656-3.918,10.568-9.068
	c0.053,0.002,0.104,0.004,0.155,0.006l0.209,0.002c5.812,0,10.634-4.866,10.752-10.854c0.033-1.854-0.389-3.655-1.229-5.297
	c1.826-2.029,2.852-4.666,2.852-7.455c0-1.383-0.252-2.729-0.742-3.996c4.529-1.299,7.867-5.588,7.867-10.662
	c0-1.579-0.34-3.129-0.973-4.545c5.1-0.812,9.062-5.396,9.123-10.912c0.041-3.426-1.051-6.307-3.248-8.604
	c3.717-1.744,6.309-5.604,6.309-10.079c0-5.066-2.443-9.196-6.062-10.85c1.072-2.057,1.195-4.289,1.195-6.326
	c0-4.709-2.549-8.816-6.299-10.934c1.912-0.586,3.93-0.875,6.076-0.875c5.467,0,10.854,1.934,14.938,3.617
	c0.261,0.106,0.525,0.149,0.793,0.151c1.103-0.005,1.986-0.897,1.986-2c0-0.646-0.307-1.222-0.781-1.587
	c-4.574-4.435-10.071-7.369-16.42-8.783c1.469-0.642,3.021-1.371,4.709-2.228C120.229,62.722,126.932,57.856,130.938,52.56z
	 M95.621,54.98c0.146-1.051,0.322-2.327,0.521-3.504c0.051,0.553,0.108,1.09,0.17,1.605c0.233,2.075,0.438,3.868-0.16,5.312
	c-0.471,1.121-0.965,2.055-1.594,2.923C95.014,59.337,95.324,57.126,95.621,54.98z M79.02,70.571
	c-0.188,0.071-0.383,0.146-0.562,0.216c0.188-0.473,0.375-0.961,0.555-1.476C78.992,69.747,78.996,70.167,79.02,70.571z
	 M71.075,72.143c-0.856-2.433-1.356-3.873-1.502-5.188C70.334,68.908,70.841,70.651,71.075,72.143z M102.723,69.732
	c4.127,0,7.939,0.57,11.426,1.704c-0.866-0.079-1.741-0.122-2.625-0.122c-4.698,0-9.047,1.23-12.924,3.656
	c-0.756,0.475-1.106,1.392-0.858,2.248c0.245,0.856,1.028,1.447,1.922,1.447c4.457,0,8.084,3.793,8.084,8.457
	c0,3.278-0.488,4.739-2.017,6.014c-0.646,0.537-0.883,1.418-0.604,2.207c0.283,0.789,1.024,1.32,1.865,1.328
	c3.688,0.033,5.616,3.861,5.616,7.625c0,3.897-3.022,7.065-6.741,7.065c-0.896,0-1.771,0.621-2.011,1.486
	c-0.271,0.998,0.154,1.846,1.277,2.516c1.922,1.145,4.469,3.178,4.416,7.563c-0.049,3.908-3.072,7.089-6.744,7.089
	c-0.562,0-1.156-0.103-1.873-0.316c-0.896-0.273-1.863,0.111-2.324,0.932c-0.461,0.814-0.291,1.846,0.404,2.471
	c1.518,1.359,2.383,3.308,2.383,5.336c0,3.863-2.979,7.021-6.656,7.062c-0.112-0.018-0.229-0.027-0.352-0.031
	c-0.771-0.02-1.482,0.404-1.836,1.096c-0.354,0.689-0.271,1.517,0.195,2.127c0.994,1.291,1.521,2.812,1.521,4.402
	c0,2.178-0.965,4.203-2.646,5.566c-0.824,0.668-0.984,1.865-0.361,2.729c0.939,1.303,1.424,2.812,1.393,4.383
	c-0.073,3.818-3.104,6.933-6.752,6.935l-0.127-0.002c-0.479-0.011-0.979-0.09-1.567-0.252c-0.615-0.164-1.272-0.027-1.771,0.366
	c-0.5,0.396-0.777,1.017-0.75,1.648c0.004,0.104,0.02,0.205,0.028,0.318c-0.045,3.855-3.053,6.979-6.743,6.979
	c-3.172,0-5.949-2.356-6.6-5.606c-0.127-0.644-0.56-1.181-1.156-1.439c-0.258-0.108-0.531-0.168-0.805-0.168
	c-0.361,0-0.722,0.101-1.039,0.291c-1.072,0.65-2.203,0.982-3.363,0.982c-3.717,0-6.742-3.171-6.742-7.064
	c0-2.217,0.992-4.268,2.722-5.629c0.564-0.442,0.847-1.155,0.741-1.866c-0.106-0.712-0.585-1.312-1.254-1.566
	c-2.639-1.021-4.41-3.68-4.41-6.602c0-0.761,0.141-1.533,0.426-2.371c0.233-0.679,0.084-1.431-0.39-1.97
	c-0.476-0.539-1.202-0.782-1.904-0.639c-0.541,0.108-1.054,0.163-1.563,0.163c-4.456,0-8.082-3.793-8.082-8.454
	c0-1.822,0.576-3.582,1.67-5.086c0.367-0.513,0.479-1.16,0.293-1.765c-0.184-0.6-0.639-1.076-1.229-1.293
	c-3.26-1.186-5.449-4.379-5.449-7.947c0-2.864,1.383-5.516,3.697-7.086c0.514-0.352,0.838-0.92,0.873-1.539
	c0.035-0.621-0.219-1.225-0.689-1.631c-1.887-1.631-2.971-3.992-2.971-6.484c0-3.255,1.767-6.167,4.608-7.595
	c0.616-0.312,1.028-0.916,1.093-1.603c0.064-0.688-0.23-1.358-0.779-1.776c-2.131-1.621-3.353-4.104-3.353-6.815
	c0-3.895,3.623-8.098,9.476-8.098c1.146,0,2.354,0.158,3.588,0.468c0.981,0.245,1.998-0.28,2.357-1.229
	c0.359-0.948-0.048-2.018-0.947-2.484c-0.304-0.156-6.285-3.219-14.512-4.309c3.537-0.863,7.167-1.299,10.862-1.299
	c12.475,0,21.522,5.023,21.61,5.073c0.451,0.257,0.979,0.324,1.471,0.202c0.512-0.033,0.979-0.259,1.32-0.621
	c2.918-1.453,13.07-6.129,24.479-7.023c0.188,0.006,0.377,0.019,0.566,0.019c0.771,0,1.566-0.063,2.377-0.159
	C102.217,69.739,102.469,69.732,102.723,69.732z"/>
</svg>
